<svg fill="none" height="64" viewBox="0 0 64 64" width="64" xmlns="http://www.w3.org/2000/svg"><path clip-rule="evenodd" d="m32 33v-20s-4-2-9-2c-9 0-16 2-16 2v5 39s7-2 16-2c5 0 9 2 9 2s5-2 10-2c9 0 15 2 15 2v-39-5s-2-1-6-1v16-16-9c-8 3-19 10-19 10z" fill="#f2eada" fill-rule="evenodd"/><path clip-rule="evenodd" d="m61 18v39c0 2.21-1.79 4-4 4h-25v-4s5-2 10-2c9 0 15 2 15 2v-39zm-29 39v4h-25c-2.21 0-4-1.79-4-4v-39h4v39s7-2 16-2c5 0 9 2 9 2z" fill="#4da6ff" fill-rule="evenodd"/><path d="m46 14c-3.016.953-9 4-9 4m9 2c-3.016.953-9 4-9 4m9 2c-3.016.953-9 4-9 4m9 2c-3.016.953-9 4-9 4m9 2c-3.016.953-9 4-9 4m-11 3.531c-6-1.406-13 .469-13 .469m13-6.469c-6-1.406-13 .469-13 .469m13-6.469c-6-1.406-13 .469-13 .469m13-6.469c-6-1.406-13 .469-13 .469m13-6.469c-6-1.406-13 .469-13 .469m19 39v-4m3-46s8-5 16-8v41c-9 3-19 9-19 9v-40s-4-2-9-2c-9 0-16 2-16 2v44s7-2 16-2c5 0 9 2 9 2s5-2 10-2c9 0 15 2 15 2v-44s-.771-.171-2.088-.414m6.088 5.414v39c0 2.209-1.791 4-4 4h-50c-2.209 0-4-1.791-4-4v-39" stroke="#12131a" stroke-linecap="round" stroke-linejoin="round"/></svg>